<?xml version="1.0" encoding="utf-8"?>
<!-- Generator: Adobe Illustrator 22.0.1, SVG Export Plug-In . SVG Version: 6.00 Build 0)  -->
<svg version="1.1" id="Calque_1" xmlns="http://www.w3.org/2000/svg" xmlns:xlink="http://www.w3.org/1999/xlink" x="0px" y="0px"
	 viewBox="0 0 7524 1255" style="enable-background:new 0 0 7524 1255;" xml:space="preserve">
<style type="text/css">
	.st0{fill:#FFFFFF;stroke:#000000;stroke-miterlimit:10;}
</style>
<path class="st0" d="M0,588c22.6,2.9,22.6,2.9,22.6,2.9l30.6-1.5l20.4,1.5h19l27.7-1.5l32.1,1.5h40.8h39.4h71.5h49.6l61.3,8.8
	l68.6-5.8l48.1,5.8h43.8H590h26.3l29.2-5.8l32.1,5.8l23.3-5.8h30.6l20.4,5.8h80.2h74.4h113.8h107.9l103.6,8.8h412.8h93.3l19,8.8
	l51.1-5.8l86.1,5.8h71.5l81.7-14.6h131.3l226.1,5.8l137.1-5.8l33.5,5.8l58.3,1.5l211.5-1.5l584.9,2.9l13.1-42.3v-58.3l11.7,99.2
	l33.5,1.5l296.1,5.8h436.1l902.9-8.8h602.4v-13.1l13.1,16l49.6-4.4l10.2-43l23.3,29.9l26.3-2.9v17.5l26.3-2.9v-19h21.9h21.9
	l37.9-7.3l39.4,1.5l13.1,21.9l51.1-10.2l23.3-13.1l27.7,26.3l271.3-4.4h167.7h42.3l30.6,2.9l93.3,1.5l16-11.7l258.2-2.9l32.1-10.2
	l336.9-7.3l157.5-2.9"/>
<path class="st0" d="M6860.7,754.5"/>
</svg>
